<!--?xml version="1.0" encoding="utf-8"?-->
<!-- Generator: Adobe Illustrator 18.0.0, SVG Export Plug-In . SVG Version: 6.00 Build 0)  -->

<svg version="1.1" id="_x32_" xmlns="http://www.w3.org/2000/svg" xmlns:xlink="http://www.w3.org/1999/xlink" x="0px" y="0px" viewBox="0 0 512 512" style="width: 256px; height: 256px; opacity: 1;" xml:space="preserve">
<style type="text/css">
	.st0{fill:#4B4B4B;}
</style>
<g>
	<path class="st0" d="M107.094,411.816h80.633c5.66,0,10.246-4.252,10.246-9.498v-143.72c0-5.246-4.586-9.499-10.246-9.499h-80.633
		c-5.658,0-10.246,4.253-10.246,9.499v143.72C96.848,407.564,101.436,411.816,107.094,411.816z" style="fill: rgb(75, 75, 75);"></path>
	<path class="st0" d="M254.108,411.816h80.631c5.66,0,10.248-4.252,10.248-9.498V157.582c0-5.246-4.588-9.498-10.248-9.498h-80.631
		c-5.66,0-10.248,4.252-10.248,9.498v244.736C243.859,407.564,248.447,411.816,254.108,411.816z" style="fill: rgb(75, 75, 75);"></path>
	<path class="st0" d="M401.119,411.816h80.633c5.658,0,10.248-4.252,10.248-9.498V42.429c0-5.246-4.59-9.499-10.248-9.499h-80.633
		c-5.658,0-10.246,4.253-10.246,9.499v359.89C390.873,407.564,395.461,411.816,401.119,411.816z" style="fill: rgb(75, 75, 75);"></path>
	<polygon class="st0" points="495.426,455.098 56.902,455.098 56.902,16.574 56.902,0 0,0 0,16.574 0,455.098 0,495.426 0,512 
		16.574,512 56.902,512 495.426,512 512,512 512,455.098 	" style="fill: rgb(75, 75, 75);"></polygon>
</g>
</svg>
